<mxfile host="app.diagrams.net" modified="2022-04-18T13:56:35.665Z" agent="5.0 (X11)" etag="8-pm74qJOlPxRU3wTeTv" version="17.4.5" type="github">
  <diagram id="rDBpLvGWTpcfFem5kKYR" name="Page-1">
    <mxGraphModel dx="-45" dy="680" grid="1" gridSize="10" guides="1" tooltips="1" connect="1" arrows="1" fold="1" page="1" pageScale="1" pageWidth="827" pageHeight="1169" math="0" shadow="0">
      <root>
        <mxCell id="0" />
        <mxCell id="1" parent="0" />
        <mxCell id="J-pBUkBS6T0_buzfe1oG-1" value="Matriculado" style="rounded=0;whiteSpace=wrap;html=1;" parent="1" vertex="1">
          <mxGeometry x="1520" y="310" width="120" height="60" as="geometry" />
        </mxCell>
        <mxCell id="J-pBUkBS6T0_buzfe1oG-18" value="" style="triangle;whiteSpace=wrap;html=1;rotation=0;" parent="1" vertex="1">
          <mxGeometry x="1470" y="300" width="40" height="80" as="geometry" />
        </mxCell>
        <mxCell id="J-pBUkBS6T0_buzfe1oG-19" value="" style="endArrow=none;html=1;rounded=0;exitX=1;exitY=0.5;exitDx=0;exitDy=0;entryX=0;entryY=0.5;entryDx=0;entryDy=0;" parent="1" source="J-pBUkBS6T0_buzfe1oG-18" target="J-pBUkBS6T0_buzfe1oG-1" edge="1">
          <mxGeometry width="50" height="50" relative="1" as="geometry">
            <mxPoint x="1490" y="360" as="sourcePoint" />
            <mxPoint x="1540" y="310" as="targetPoint" />
          </mxGeometry>
        </mxCell>
        <mxCell id="J-pBUkBS6T0_buzfe1oG-20" value="Aluno" style="rounded=0;whiteSpace=wrap;html=1;" parent="1" vertex="1">
          <mxGeometry x="1340" y="240" width="120" height="60" as="geometry" />
        </mxCell>
        <mxCell id="J-pBUkBS6T0_buzfe1oG-21" value="Aluno monitor" style="rounded=0;whiteSpace=wrap;html=1;" parent="1" vertex="1">
          <mxGeometry x="1340" y="380" width="120" height="60" as="geometry" />
        </mxCell>
        <mxCell id="J-pBUkBS6T0_buzfe1oG-24" value="" style="endArrow=none;html=1;rounded=0;entryX=1;entryY=0.5;entryDx=0;entryDy=0;" parent="1" target="J-pBUkBS6T0_buzfe1oG-20" edge="1">
          <mxGeometry width="50" height="50" relative="1" as="geometry">
            <mxPoint x="1470" y="300" as="sourcePoint" />
            <mxPoint x="1340" y="290" as="targetPoint" />
          </mxGeometry>
        </mxCell>
        <mxCell id="J-pBUkBS6T0_buzfe1oG-25" value="" style="endArrow=none;html=1;rounded=0;exitX=1;exitY=0.5;exitDx=0;exitDy=0;" parent="1" source="J-pBUkBS6T0_buzfe1oG-21" edge="1">
          <mxGeometry width="50" height="50" relative="1" as="geometry">
            <mxPoint x="1430" y="460" as="sourcePoint" />
            <mxPoint x="1470" y="380" as="targetPoint" />
          </mxGeometry>
        </mxCell>
        <mxCell id="J-pBUkBS6T0_buzfe1oG-26" value="Turma" style="rounded=0;whiteSpace=wrap;html=1;" parent="1" vertex="1">
          <mxGeometry x="1120" y="310" width="120" height="60" as="geometry" />
        </mxCell>
        <mxCell id="J-pBUkBS6T0_buzfe1oG-29" value="(n,m)" style="text;html=1;strokeColor=none;fillColor=none;align=center;verticalAlign=middle;whiteSpace=wrap;rounded=0;" parent="1" vertex="1">
          <mxGeometry x="1230" y="300" width="60" height="30" as="geometry" />
        </mxCell>
        <mxCell id="J-pBUkBS6T0_buzfe1oG-30" value="(1,1)" style="text;html=1;strokeColor=none;fillColor=none;align=center;verticalAlign=middle;whiteSpace=wrap;rounded=0;" parent="1" vertex="1">
          <mxGeometry x="1230" y="350" width="60" height="30" as="geometry" />
        </mxCell>
        <mxCell id="J-pBUkBS6T0_buzfe1oG-31" value="Possui" style="rhombus;whiteSpace=wrap;html=1;" parent="1" vertex="1">
          <mxGeometry x="1140" y="410" width="80" height="80" as="geometry" />
        </mxCell>
        <mxCell id="J-pBUkBS6T0_buzfe1oG-32" value="Atividade" style="rounded=0;whiteSpace=wrap;html=1;" parent="1" vertex="1">
          <mxGeometry x="1120" y="530" width="120" height="60" as="geometry" />
        </mxCell>
        <mxCell id="J-pBUkBS6T0_buzfe1oG-33" value="" style="endArrow=none;html=1;rounded=0;entryX=0.5;entryY=1;entryDx=0;entryDy=0;exitX=0.5;exitY=0;exitDx=0;exitDy=0;" parent="1" source="J-pBUkBS6T0_buzfe1oG-31" target="J-pBUkBS6T0_buzfe1oG-26" edge="1">
          <mxGeometry width="50" height="50" relative="1" as="geometry">
            <mxPoint x="1080" y="460" as="sourcePoint" />
            <mxPoint x="1130" y="410" as="targetPoint" />
          </mxGeometry>
        </mxCell>
        <mxCell id="J-pBUkBS6T0_buzfe1oG-34" value="" style="endArrow=none;html=1;rounded=0;exitX=0.5;exitY=0;exitDx=0;exitDy=0;entryX=0.5;entryY=1;entryDx=0;entryDy=0;" parent="1" source="J-pBUkBS6T0_buzfe1oG-32" target="J-pBUkBS6T0_buzfe1oG-31" edge="1">
          <mxGeometry width="50" height="50" relative="1" as="geometry">
            <mxPoint x="1100" y="480" as="sourcePoint" />
            <mxPoint x="1150" y="430" as="targetPoint" />
          </mxGeometry>
        </mxCell>
        <mxCell id="J-pBUkBS6T0_buzfe1oG-35" value="(n,m)" style="text;html=1;strokeColor=none;fillColor=none;align=center;verticalAlign=middle;whiteSpace=wrap;rounded=0;" parent="1" vertex="1">
          <mxGeometry x="1130" y="370" width="60" height="30" as="geometry" />
        </mxCell>
        <mxCell id="J-pBUkBS6T0_buzfe1oG-36" value="Orienta" style="rhombus;whiteSpace=wrap;html=1;" parent="1" vertex="1">
          <mxGeometry x="1000" y="300" width="80" height="80" as="geometry" />
        </mxCell>
        <mxCell id="J-pBUkBS6T0_buzfe1oG-37" value="Instrutor" style="rounded=0;whiteSpace=wrap;html=1;" parent="1" vertex="1">
          <mxGeometry x="840" y="310" width="120" height="60" as="geometry" />
        </mxCell>
        <mxCell id="J-pBUkBS6T0_buzfe1oG-38" value="" style="endArrow=none;html=1;rounded=0;exitX=1;exitY=0.5;exitDx=0;exitDy=0;entryX=0;entryY=0.5;entryDx=0;entryDy=0;" parent="1" source="J-pBUkBS6T0_buzfe1oG-36" target="J-pBUkBS6T0_buzfe1oG-26" edge="1">
          <mxGeometry width="50" height="50" relative="1" as="geometry">
            <mxPoint x="1070" y="350" as="sourcePoint" />
            <mxPoint x="1120" y="300" as="targetPoint" />
          </mxGeometry>
        </mxCell>
        <mxCell id="J-pBUkBS6T0_buzfe1oG-39" value="" style="endArrow=none;html=1;rounded=0;entryX=0;entryY=0.5;entryDx=0;entryDy=0;exitX=1;exitY=0.5;exitDx=0;exitDy=0;" parent="1" source="J-pBUkBS6T0_buzfe1oG-37" target="J-pBUkBS6T0_buzfe1oG-36" edge="1">
          <mxGeometry width="50" height="50" relative="1" as="geometry">
            <mxPoint x="960" y="410" as="sourcePoint" />
            <mxPoint x="1010" y="360" as="targetPoint" />
          </mxGeometry>
        </mxCell>
        <mxCell id="J-pBUkBS6T0_buzfe1oG-40" value="(1,1)" style="text;html=1;strokeColor=none;fillColor=none;align=center;verticalAlign=middle;whiteSpace=wrap;rounded=0;" parent="1" vertex="1">
          <mxGeometry x="950" y="310" width="60" height="30" as="geometry" />
        </mxCell>
        <mxCell id="J-pBUkBS6T0_buzfe1oG-43" value="" style="ellipse;whiteSpace=wrap;html=1;aspect=fixed;" parent="1" vertex="1">
          <mxGeometry x="1090" y="280" width="20" height="20" as="geometry" />
        </mxCell>
        <mxCell id="J-pBUkBS6T0_buzfe1oG-44" value="" style="ellipse;whiteSpace=wrap;html=1;aspect=fixed;" parent="1" vertex="1">
          <mxGeometry x="1110" y="265" width="20" height="20" as="geometry" />
        </mxCell>
        <mxCell id="J-pBUkBS6T0_buzfe1oG-45" value="" style="ellipse;whiteSpace=wrap;html=1;aspect=fixed;" parent="1" vertex="1">
          <mxGeometry x="1130" y="250" width="20" height="20" as="geometry" />
        </mxCell>
        <mxCell id="J-pBUkBS6T0_buzfe1oG-46" value="" style="ellipse;whiteSpace=wrap;html=1;aspect=fixed;" parent="1" vertex="1">
          <mxGeometry x="1160" y="250" width="20" height="20" as="geometry" />
        </mxCell>
        <mxCell id="J-pBUkBS6T0_buzfe1oG-47" value="" style="ellipse;whiteSpace=wrap;html=1;aspect=fixed;" parent="1" vertex="1">
          <mxGeometry x="1180" y="265" width="20" height="20" as="geometry" />
        </mxCell>
        <mxCell id="J-pBUkBS6T0_buzfe1oG-50" value="" style="ellipse;whiteSpace=wrap;html=1;aspect=fixed;" parent="1" vertex="1">
          <mxGeometry x="1200" y="280" width="20" height="20" as="geometry" />
        </mxCell>
        <mxCell id="J-pBUkBS6T0_buzfe1oG-51" value="&lt;u&gt;codigo&lt;/u&gt;" style="text;html=1;strokeColor=none;fillColor=none;align=center;verticalAlign=middle;whiteSpace=wrap;rounded=0;rotation=-90;" parent="1" vertex="1">
          <mxGeometry x="1070" y="240" width="60" height="30" as="geometry" />
        </mxCell>
        <mxCell id="J-pBUkBS6T0_buzfe1oG-52" value="qtd_alunos" style="text;html=1;strokeColor=none;fillColor=none;align=center;verticalAlign=middle;whiteSpace=wrap;rounded=0;rotation=-90;" parent="1" vertex="1">
          <mxGeometry x="1090" y="215" width="60" height="30" as="geometry" />
        </mxCell>
        <mxCell id="J-pBUkBS6T0_buzfe1oG-53" value="data_inicial" style="text;html=1;strokeColor=none;fillColor=none;align=center;verticalAlign=middle;whiteSpace=wrap;rounded=0;rotation=-90;" parent="1" vertex="1">
          <mxGeometry x="1110" y="200" width="60" height="30" as="geometry" />
        </mxCell>
        <mxCell id="J-pBUkBS6T0_buzfe1oG-54" value="data_final" style="text;html=1;strokeColor=none;fillColor=none;align=center;verticalAlign=middle;whiteSpace=wrap;rounded=0;rotation=-90;" parent="1" vertex="1">
          <mxGeometry x="1140" y="200" width="60" height="30" as="geometry" />
        </mxCell>
        <mxCell id="J-pBUkBS6T0_buzfe1oG-55" value="duracao" style="text;html=1;strokeColor=none;fillColor=none;align=center;verticalAlign=middle;whiteSpace=wrap;rounded=0;rotation=-90;" parent="1" vertex="1">
          <mxGeometry x="1160" y="220" width="60" height="30" as="geometry" />
        </mxCell>
        <mxCell id="J-pBUkBS6T0_buzfe1oG-56" value="horario" style="text;html=1;strokeColor=none;fillColor=none;align=center;verticalAlign=middle;whiteSpace=wrap;rounded=0;rotation=-90;" parent="1" vertex="1">
          <mxGeometry x="1180" y="240" width="60" height="30" as="geometry" />
        </mxCell>
        <mxCell id="J-pBUkBS6T0_buzfe1oG-57" value="" style="ellipse;whiteSpace=wrap;html=1;aspect=fixed;" parent="1" vertex="1">
          <mxGeometry x="840" y="270" width="20" height="20" as="geometry" />
        </mxCell>
        <mxCell id="J-pBUkBS6T0_buzfe1oG-58" value="" style="ellipse;whiteSpace=wrap;html=1;aspect=fixed;" parent="1" vertex="1">
          <mxGeometry x="940" y="270" width="20" height="20" as="geometry" />
        </mxCell>
        <mxCell id="J-pBUkBS6T0_buzfe1oG-61" value="" style="ellipse;whiteSpace=wrap;html=1;aspect=fixed;" parent="1" vertex="1">
          <mxGeometry x="870" y="270" width="20" height="20" as="geometry" />
        </mxCell>
        <mxCell id="J-pBUkBS6T0_buzfe1oG-63" value="" style="ellipse;whiteSpace=wrap;html=1;aspect=fixed;" parent="1" vertex="1">
          <mxGeometry x="910" y="270" width="20" height="20" as="geometry" />
        </mxCell>
        <mxCell id="J-pBUkBS6T0_buzfe1oG-66" value="" style="endArrow=none;html=1;rounded=0;entryX=0.5;entryY=1;entryDx=0;entryDy=0;exitX=0.084;exitY=-0.002;exitDx=0;exitDy=0;exitPerimeter=0;" parent="1" source="J-pBUkBS6T0_buzfe1oG-37" target="J-pBUkBS6T0_buzfe1oG-57" edge="1">
          <mxGeometry width="50" height="50" relative="1" as="geometry">
            <mxPoint x="860" y="310" as="sourcePoint" />
            <mxPoint x="910" y="260" as="targetPoint" />
          </mxGeometry>
        </mxCell>
        <mxCell id="J-pBUkBS6T0_buzfe1oG-67" value="" style="endArrow=none;html=1;rounded=0;entryX=0.5;entryY=1;entryDx=0;entryDy=0;exitX=0.333;exitY=-0.002;exitDx=0;exitDy=0;exitPerimeter=0;" parent="1" source="J-pBUkBS6T0_buzfe1oG-37" target="J-pBUkBS6T0_buzfe1oG-61" edge="1">
          <mxGeometry width="50" height="50" relative="1" as="geometry">
            <mxPoint x="890" y="310" as="sourcePoint" />
            <mxPoint x="940" y="260" as="targetPoint" />
          </mxGeometry>
        </mxCell>
        <mxCell id="J-pBUkBS6T0_buzfe1oG-68" value="" style="endArrow=none;html=1;rounded=0;exitX=0.668;exitY=0.001;exitDx=0;exitDy=0;exitPerimeter=0;entryX=0.5;entryY=1;entryDx=0;entryDy=0;" parent="1" source="J-pBUkBS6T0_buzfe1oG-37" target="J-pBUkBS6T0_buzfe1oG-63" edge="1">
          <mxGeometry width="50" height="50" relative="1" as="geometry">
            <mxPoint x="900" y="330" as="sourcePoint" />
            <mxPoint x="950" y="280" as="targetPoint" />
          </mxGeometry>
        </mxCell>
        <mxCell id="J-pBUkBS6T0_buzfe1oG-69" value="" style="endArrow=none;html=1;rounded=0;exitX=0;exitY=0;exitDx=0;exitDy=0;entryX=0.5;entryY=1;entryDx=0;entryDy=0;" parent="1" source="J-pBUkBS6T0_buzfe1oG-40" target="J-pBUkBS6T0_buzfe1oG-58" edge="1">
          <mxGeometry width="50" height="50" relative="1" as="geometry">
            <mxPoint x="890" y="300" as="sourcePoint" />
            <mxPoint x="940" y="250" as="targetPoint" />
          </mxGeometry>
        </mxCell>
        <mxCell id="J-pBUkBS6T0_buzfe1oG-70" value="&lt;u&gt;rg&lt;/u&gt;" style="text;html=1;strokeColor=none;fillColor=none;align=center;verticalAlign=middle;whiteSpace=wrap;rounded=0;rotation=-90;" parent="1" vertex="1">
          <mxGeometry x="820" y="240" width="60" height="30" as="geometry" />
        </mxCell>
        <mxCell id="J-pBUkBS6T0_buzfe1oG-71" value="nome" style="text;html=1;strokeColor=none;fillColor=none;align=center;verticalAlign=middle;whiteSpace=wrap;rounded=0;rotation=-90;" parent="1" vertex="1">
          <mxGeometry x="850" y="235" width="60" height="30" as="geometry" />
        </mxCell>
        <mxCell id="J-pBUkBS6T0_buzfe1oG-72" value="nascimento" style="text;html=1;strokeColor=none;fillColor=none;align=center;verticalAlign=middle;whiteSpace=wrap;rounded=0;rotation=-90;" parent="1" vertex="1">
          <mxGeometry x="890" y="220" width="60" height="30" as="geometry" />
        </mxCell>
        <mxCell id="J-pBUkBS6T0_buzfe1oG-73" value="titulacao" style="text;html=1;strokeColor=none;fillColor=none;align=center;verticalAlign=middle;whiteSpace=wrap;rounded=0;rotation=-90;" parent="1" vertex="1">
          <mxGeometry x="920" y="230" width="60" height="30" as="geometry" />
        </mxCell>
        <mxCell id="J-pBUkBS6T0_buzfe1oG-74" value="Possui" style="rhombus;whiteSpace=wrap;html=1;" parent="1" vertex="1">
          <mxGeometry x="860" y="410" width="80" height="80" as="geometry" />
        </mxCell>
        <mxCell id="J-pBUkBS6T0_buzfe1oG-75" value="Telefone" style="rounded=0;whiteSpace=wrap;html=1;" parent="1" vertex="1">
          <mxGeometry x="840" y="530" width="120" height="60" as="geometry" />
        </mxCell>
        <mxCell id="J-pBUkBS6T0_buzfe1oG-76" value="(1,1)" style="text;html=1;strokeColor=none;fillColor=none;align=center;verticalAlign=middle;whiteSpace=wrap;rounded=0;" parent="1" vertex="1">
          <mxGeometry x="890" y="370" width="60" height="30" as="geometry" />
        </mxCell>
        <mxCell id="J-pBUkBS6T0_buzfe1oG-77" value="" style="endArrow=none;html=1;rounded=0;entryX=0.5;entryY=1;entryDx=0;entryDy=0;exitX=0.5;exitY=0;exitDx=0;exitDy=0;" parent="1" source="J-pBUkBS6T0_buzfe1oG-75" target="J-pBUkBS6T0_buzfe1oG-74" edge="1">
          <mxGeometry width="50" height="50" relative="1" as="geometry">
            <mxPoint x="880" y="550" as="sourcePoint" />
            <mxPoint x="930" y="500" as="targetPoint" />
          </mxGeometry>
        </mxCell>
        <mxCell id="J-pBUkBS6T0_buzfe1oG-78" value="" style="endArrow=none;html=1;rounded=0;entryX=0.5;entryY=1;entryDx=0;entryDy=0;exitX=0.5;exitY=0;exitDx=0;exitDy=0;" parent="1" source="J-pBUkBS6T0_buzfe1oG-74" target="J-pBUkBS6T0_buzfe1oG-37" edge="1">
          <mxGeometry width="50" height="50" relative="1" as="geometry">
            <mxPoint x="740" y="430" as="sourcePoint" />
            <mxPoint x="790" y="380" as="targetPoint" />
          </mxGeometry>
        </mxCell>
        <mxCell id="J-pBUkBS6T0_buzfe1oG-79" value="" style="endArrow=none;html=1;rounded=0;exitX=0;exitY=0;exitDx=0;exitDy=0;entryX=1;entryY=1;entryDx=0;entryDy=0;" parent="1" source="J-pBUkBS6T0_buzfe1oG-26" target="J-pBUkBS6T0_buzfe1oG-43" edge="1">
          <mxGeometry width="50" height="50" relative="1" as="geometry">
            <mxPoint x="1070" y="330" as="sourcePoint" />
            <mxPoint x="1120" y="280" as="targetPoint" />
          </mxGeometry>
        </mxCell>
        <mxCell id="J-pBUkBS6T0_buzfe1oG-80" value="" style="endArrow=none;html=1;rounded=0;entryX=0.5;entryY=1;entryDx=0;entryDy=0;" parent="1" target="J-pBUkBS6T0_buzfe1oG-45" edge="1">
          <mxGeometry width="50" height="50" relative="1" as="geometry">
            <mxPoint x="1140" y="310" as="sourcePoint" />
            <mxPoint x="1190" y="260" as="targetPoint" />
          </mxGeometry>
        </mxCell>
        <mxCell id="J-pBUkBS6T0_buzfe1oG-81" value="" style="endArrow=none;html=1;rounded=0;entryX=0.5;entryY=1;entryDx=0;entryDy=0;" parent="1" target="J-pBUkBS6T0_buzfe1oG-46" edge="1">
          <mxGeometry width="50" height="50" relative="1" as="geometry">
            <mxPoint x="1170" y="310" as="sourcePoint" />
            <mxPoint x="1220" y="260" as="targetPoint" />
          </mxGeometry>
        </mxCell>
        <mxCell id="J-pBUkBS6T0_buzfe1oG-82" value="" style="endArrow=none;html=1;rounded=0;entryX=0.5;entryY=1;entryDx=0;entryDy=0;" parent="1" target="J-pBUkBS6T0_buzfe1oG-44" edge="1">
          <mxGeometry width="50" height="50" relative="1" as="geometry">
            <mxPoint x="1130" y="310" as="sourcePoint" />
            <mxPoint x="1180" y="260" as="targetPoint" />
          </mxGeometry>
        </mxCell>
        <mxCell id="J-pBUkBS6T0_buzfe1oG-83" value="" style="endArrow=none;html=1;rounded=0;entryX=0.5;entryY=1;entryDx=0;entryDy=0;" parent="1" target="J-pBUkBS6T0_buzfe1oG-47" edge="1">
          <mxGeometry width="50" height="50" relative="1" as="geometry">
            <mxPoint x="1180" y="310" as="sourcePoint" />
            <mxPoint x="1230" y="260" as="targetPoint" />
          </mxGeometry>
        </mxCell>
        <mxCell id="J-pBUkBS6T0_buzfe1oG-84" value="" style="endArrow=none;html=1;rounded=0;entryX=0;entryY=1;entryDx=0;entryDy=0;exitX=0.585;exitY=0.003;exitDx=0;exitDy=0;exitPerimeter=0;" parent="1" source="J-pBUkBS6T0_buzfe1oG-26" target="J-pBUkBS6T0_buzfe1oG-50" edge="1">
          <mxGeometry width="50" height="50" relative="1" as="geometry">
            <mxPoint x="1170" y="320" as="sourcePoint" />
            <mxPoint x="1220" y="270" as="targetPoint" />
          </mxGeometry>
        </mxCell>
        <mxCell id="J-pBUkBS6T0_buzfe1oG-85" value="" style="ellipse;whiteSpace=wrap;html=1;aspect=fixed;" parent="1" vertex="1">
          <mxGeometry x="1260" y="550" width="20" height="20" as="geometry" />
        </mxCell>
        <mxCell id="J-pBUkBS6T0_buzfe1oG-86" value="" style="endArrow=none;html=1;rounded=0;entryX=0;entryY=0.5;entryDx=0;entryDy=0;" parent="1" target="J-pBUkBS6T0_buzfe1oG-85" edge="1">
          <mxGeometry width="50" height="50" relative="1" as="geometry">
            <mxPoint x="1240" y="560" as="sourcePoint" />
            <mxPoint x="1290" y="510" as="targetPoint" />
          </mxGeometry>
        </mxCell>
        <mxCell id="J-pBUkBS6T0_buzfe1oG-87" value="&lt;u&gt;nome&lt;/u&gt;" style="text;html=1;strokeColor=none;fillColor=none;align=center;verticalAlign=middle;whiteSpace=wrap;rounded=0;" parent="1" vertex="1">
          <mxGeometry x="1270" y="545" width="60" height="30" as="geometry" />
        </mxCell>
        <mxCell id="J-pBUkBS6T0_buzfe1oG-89" value="" style="ellipse;whiteSpace=wrap;html=1;aspect=fixed;" parent="1" vertex="1">
          <mxGeometry x="1500" y="265" width="20" height="20" as="geometry" />
        </mxCell>
        <mxCell id="J-pBUkBS6T0_buzfe1oG-90" value="" style="ellipse;whiteSpace=wrap;html=1;aspect=fixed;" parent="1" vertex="1">
          <mxGeometry x="1530" y="265" width="20" height="20" as="geometry" />
        </mxCell>
        <mxCell id="J-pBUkBS6T0_buzfe1oG-91" value="" style="ellipse;whiteSpace=wrap;html=1;aspect=fixed;" parent="1" vertex="1">
          <mxGeometry x="1560" y="265" width="20" height="20" as="geometry" />
        </mxCell>
        <mxCell id="J-pBUkBS6T0_buzfe1oG-94" value="" style="ellipse;whiteSpace=wrap;html=1;aspect=fixed;" parent="1" vertex="1">
          <mxGeometry x="1590" y="265" width="20" height="20" as="geometry" />
        </mxCell>
        <mxCell id="J-pBUkBS6T0_buzfe1oG-95" value="" style="ellipse;whiteSpace=wrap;html=1;aspect=fixed;" parent="1" vertex="1">
          <mxGeometry x="1620" y="265" width="20" height="20" as="geometry" />
        </mxCell>
        <mxCell id="J-pBUkBS6T0_buzfe1oG-97" value="" style="ellipse;whiteSpace=wrap;html=1;aspect=fixed;" parent="1" vertex="1">
          <mxGeometry x="1550" y="390" width="20" height="20" as="geometry" />
        </mxCell>
        <mxCell id="J-pBUkBS6T0_buzfe1oG-98" value="" style="ellipse;whiteSpace=wrap;html=1;aspect=fixed;" parent="1" vertex="1">
          <mxGeometry x="1520" y="390" width="20" height="20" as="geometry" />
        </mxCell>
        <mxCell id="J-pBUkBS6T0_buzfe1oG-99" value="" style="ellipse;whiteSpace=wrap;html=1;aspect=fixed;" parent="1" vertex="1">
          <mxGeometry x="1620" y="390" width="20" height="20" as="geometry" />
        </mxCell>
        <mxCell id="J-pBUkBS6T0_buzfe1oG-100" value="" style="ellipse;whiteSpace=wrap;html=1;aspect=fixed;" parent="1" vertex="1">
          <mxGeometry x="1590" y="390" width="20" height="20" as="geometry" />
        </mxCell>
        <mxCell id="J-pBUkBS6T0_buzfe1oG-101" value="&lt;u&gt;matricula&lt;/u&gt;" style="text;html=1;strokeColor=none;fillColor=none;align=center;verticalAlign=middle;whiteSpace=wrap;rounded=0;rotation=-90;" parent="1" vertex="1">
          <mxGeometry x="1480" y="220" width="60" height="30" as="geometry" />
        </mxCell>
        <mxCell id="J-pBUkBS6T0_buzfe1oG-102" value="data_matricula" style="text;html=1;strokeColor=none;fillColor=none;align=center;verticalAlign=middle;whiteSpace=wrap;rounded=0;rotation=-90;" parent="1" vertex="1">
          <mxGeometry x="1510" y="205" width="60" height="30" as="geometry" />
        </mxCell>
        <mxCell id="J-pBUkBS6T0_buzfe1oG-103" value="nome" style="text;html=1;strokeColor=none;fillColor=none;align=center;verticalAlign=middle;whiteSpace=wrap;rounded=0;rotation=-90;" parent="1" vertex="1">
          <mxGeometry x="1540" y="230" width="60" height="30" as="geometry" />
        </mxCell>
        <mxCell id="J-pBUkBS6T0_buzfe1oG-104" value="endereço" style="text;html=1;strokeColor=none;fillColor=none;align=center;verticalAlign=middle;whiteSpace=wrap;rounded=0;rotation=-90;" parent="1" vertex="1">
          <mxGeometry x="1600" y="220" width="60" height="30" as="geometry" />
        </mxCell>
        <mxCell id="J-pBUkBS6T0_buzfe1oG-105" value="telefone" style="text;html=1;strokeColor=none;fillColor=none;align=center;verticalAlign=middle;whiteSpace=wrap;rounded=0;rotation=-90;" parent="1" vertex="1">
          <mxGeometry x="1570" y="220" width="60" height="30" as="geometry" />
        </mxCell>
        <mxCell id="J-pBUkBS6T0_buzfe1oG-106" value="ausencias" style="text;html=1;strokeColor=none;fillColor=none;align=center;verticalAlign=middle;whiteSpace=wrap;rounded=0;rotation=-90;" parent="1" vertex="1">
          <mxGeometry x="1500" y="435" width="60" height="30" as="geometry" />
        </mxCell>
        <mxCell id="J-pBUkBS6T0_buzfe1oG-107" value="nascimento" style="text;html=1;strokeColor=none;fillColor=none;align=center;verticalAlign=middle;whiteSpace=wrap;rounded=0;rotation=-90;" parent="1" vertex="1">
          <mxGeometry x="1530" y="430" width="60" height="30" as="geometry" />
        </mxCell>
        <mxCell id="J-pBUkBS6T0_buzfe1oG-108" value="altura" style="text;html=1;strokeColor=none;fillColor=none;align=center;verticalAlign=middle;whiteSpace=wrap;rounded=0;rotation=-90;" parent="1" vertex="1">
          <mxGeometry x="1570" y="420" width="60" height="30" as="geometry" />
        </mxCell>
        <mxCell id="J-pBUkBS6T0_buzfe1oG-109" value="peso" style="text;html=1;strokeColor=none;fillColor=none;align=center;verticalAlign=middle;whiteSpace=wrap;rounded=0;rotation=-90;" parent="1" vertex="1">
          <mxGeometry x="1600" y="420" width="60" height="30" as="geometry" />
        </mxCell>
        <mxCell id="J-pBUkBS6T0_buzfe1oG-110" value="Possui" style="rhombus;whiteSpace=wrap;html=1;" parent="1" vertex="1">
          <mxGeometry x="1260" y="300" width="80" height="80" as="geometry" />
        </mxCell>
        <mxCell id="J-pBUkBS6T0_buzfe1oG-111" value="" style="endArrow=none;html=1;rounded=0;exitX=1;exitY=0.5;exitDx=0;exitDy=0;entryX=0;entryY=0.5;entryDx=0;entryDy=0;" parent="1" source="J-pBUkBS6T0_buzfe1oG-26" target="J-pBUkBS6T0_buzfe1oG-110" edge="1">
          <mxGeometry width="50" height="50" relative="1" as="geometry">
            <mxPoint x="1250" y="370" as="sourcePoint" />
            <mxPoint x="1300" y="320" as="targetPoint" />
          </mxGeometry>
        </mxCell>
        <mxCell id="J-pBUkBS6T0_buzfe1oG-112" value="" style="endArrow=none;html=1;rounded=0;exitX=0.5;exitY=1;exitDx=0;exitDy=0;" parent="1" source="J-pBUkBS6T0_buzfe1oG-110" edge="1">
          <mxGeometry width="50" height="50" relative="1" as="geometry">
            <mxPoint x="1290" y="460" as="sourcePoint" />
            <mxPoint x="1340" y="410" as="targetPoint" />
            <Array as="points">
              <mxPoint x="1300" y="410" />
            </Array>
          </mxGeometry>
        </mxCell>
        <mxCell id="J-pBUkBS6T0_buzfe1oG-113" value="" style="endArrow=none;html=1;rounded=0;entryX=0;entryY=0.5;entryDx=0;entryDy=0;" parent="1" target="J-pBUkBS6T0_buzfe1oG-20" edge="1">
          <mxGeometry width="50" height="50" relative="1" as="geometry">
            <mxPoint x="1300" y="300" as="sourcePoint" />
            <mxPoint x="1350" y="250" as="targetPoint" />
            <Array as="points">
              <mxPoint x="1300" y="270" />
            </Array>
          </mxGeometry>
        </mxCell>
        <mxCell id="J-pBUkBS6T0_buzfe1oG-114" value="" style="ellipse;whiteSpace=wrap;html=1;aspect=fixed;" parent="1" vertex="1">
          <mxGeometry x="980" y="550" width="20" height="20" as="geometry" />
        </mxCell>
        <mxCell id="J-pBUkBS6T0_buzfe1oG-115" value="&lt;u&gt;numero&lt;/u&gt;" style="text;html=1;strokeColor=none;fillColor=none;align=center;verticalAlign=middle;whiteSpace=wrap;rounded=0;" parent="1" vertex="1">
          <mxGeometry x="1000" y="545" width="60" height="30" as="geometry" />
        </mxCell>
        <mxCell id="J-pBUkBS6T0_buzfe1oG-116" value="" style="endArrow=none;html=1;rounded=0;entryX=0;entryY=0.5;entryDx=0;entryDy=0;" parent="1" target="J-pBUkBS6T0_buzfe1oG-114" edge="1">
          <mxGeometry width="50" height="50" relative="1" as="geometry">
            <mxPoint x="960" y="560" as="sourcePoint" />
            <mxPoint x="1010" y="510" as="targetPoint" />
          </mxGeometry>
        </mxCell>
        <mxCell id="J-pBUkBS6T0_buzfe1oG-117" value="" style="endArrow=none;html=1;rounded=0;exitX=0.5;exitY=1;exitDx=0;exitDy=0;entryX=0;entryY=0;entryDx=0;entryDy=0;" parent="1" source="J-pBUkBS6T0_buzfe1oG-89" target="J-pBUkBS6T0_buzfe1oG-1" edge="1">
          <mxGeometry width="50" height="50" relative="1" as="geometry">
            <mxPoint x="1500" y="320" as="sourcePoint" />
            <mxPoint x="1550" y="270" as="targetPoint" />
          </mxGeometry>
        </mxCell>
        <mxCell id="J-pBUkBS6T0_buzfe1oG-118" value="" style="endArrow=none;html=1;rounded=0;entryX=0.5;entryY=1;entryDx=0;entryDy=0;exitX=0.914;exitY=-0.001;exitDx=0;exitDy=0;exitPerimeter=0;" parent="1" source="J-pBUkBS6T0_buzfe1oG-1" target="J-pBUkBS6T0_buzfe1oG-95" edge="1">
          <mxGeometry width="50" height="50" relative="1" as="geometry">
            <mxPoint x="1610" y="310" as="sourcePoint" />
            <mxPoint x="1660" y="260" as="targetPoint" />
          </mxGeometry>
        </mxCell>
        <mxCell id="J-pBUkBS6T0_buzfe1oG-119" value="" style="endArrow=none;html=1;rounded=0;entryX=0.5;entryY=1;entryDx=0;entryDy=0;exitX=0.67;exitY=0;exitDx=0;exitDy=0;exitPerimeter=0;" parent="1" source="J-pBUkBS6T0_buzfe1oG-1" target="J-pBUkBS6T0_buzfe1oG-94" edge="1">
          <mxGeometry width="50" height="50" relative="1" as="geometry">
            <mxPoint x="1560" y="330" as="sourcePoint" />
            <mxPoint x="1610" y="280" as="targetPoint" />
          </mxGeometry>
        </mxCell>
        <mxCell id="J-pBUkBS6T0_buzfe1oG-120" value="" style="endArrow=none;html=1;rounded=0;entryX=0.5;entryY=1;entryDx=0;entryDy=0;exitX=0.167;exitY=0;exitDx=0;exitDy=0;exitPerimeter=0;" parent="1" source="J-pBUkBS6T0_buzfe1oG-1" target="J-pBUkBS6T0_buzfe1oG-90" edge="1">
          <mxGeometry width="50" height="50" relative="1" as="geometry">
            <mxPoint x="1540" y="300" as="sourcePoint" />
            <mxPoint x="1590" y="290" as="targetPoint" />
          </mxGeometry>
        </mxCell>
        <mxCell id="J-pBUkBS6T0_buzfe1oG-121" value="" style="endArrow=none;html=1;rounded=0;entryX=0.5;entryY=1;entryDx=0;entryDy=0;exitX=0.417;exitY=0;exitDx=0;exitDy=0;exitPerimeter=0;" parent="1" source="J-pBUkBS6T0_buzfe1oG-1" target="J-pBUkBS6T0_buzfe1oG-91" edge="1">
          <mxGeometry width="50" height="50" relative="1" as="geometry">
            <mxPoint x="1550" y="330" as="sourcePoint" />
            <mxPoint x="1600" y="280" as="targetPoint" />
          </mxGeometry>
        </mxCell>
        <mxCell id="J-pBUkBS6T0_buzfe1oG-122" value="" style="endArrow=none;html=1;rounded=0;exitX=0.5;exitY=0;exitDx=0;exitDy=0;" parent="1" source="J-pBUkBS6T0_buzfe1oG-98" edge="1">
          <mxGeometry width="50" height="50" relative="1" as="geometry">
            <mxPoint x="1480" y="420" as="sourcePoint" />
            <mxPoint x="1530" y="370" as="targetPoint" />
          </mxGeometry>
        </mxCell>
        <mxCell id="J-pBUkBS6T0_buzfe1oG-123" value="" style="endArrow=none;html=1;rounded=0;exitX=0.5;exitY=0;exitDx=0;exitDy=0;" parent="1" source="J-pBUkBS6T0_buzfe1oG-97" edge="1">
          <mxGeometry width="50" height="50" relative="1" as="geometry">
            <mxPoint x="1510" y="420" as="sourcePoint" />
            <mxPoint x="1560" y="370" as="targetPoint" />
          </mxGeometry>
        </mxCell>
        <mxCell id="J-pBUkBS6T0_buzfe1oG-124" value="" style="endArrow=none;html=1;rounded=0;exitX=0.5;exitY=0;exitDx=0;exitDy=0;" parent="1" source="J-pBUkBS6T0_buzfe1oG-100" edge="1">
          <mxGeometry width="50" height="50" relative="1" as="geometry">
            <mxPoint x="1550" y="420" as="sourcePoint" />
            <mxPoint x="1600" y="370" as="targetPoint" />
          </mxGeometry>
        </mxCell>
        <mxCell id="J-pBUkBS6T0_buzfe1oG-125" value="" style="endArrow=none;html=1;rounded=0;exitX=0.5;exitY=0;exitDx=0;exitDy=0;" parent="1" source="J-pBUkBS6T0_buzfe1oG-99" edge="1">
          <mxGeometry width="50" height="50" relative="1" as="geometry">
            <mxPoint x="1580" y="420" as="sourcePoint" />
            <mxPoint x="1630" y="370" as="targetPoint" />
          </mxGeometry>
        </mxCell>
        <mxCell id="KCAJLVSLBCVtTbZ3tJ5R-1" value="(1,n)" style="text;html=1;strokeColor=none;fillColor=none;align=center;verticalAlign=middle;whiteSpace=wrap;rounded=0;" vertex="1" parent="1">
          <mxGeometry x="1070" y="310" width="60" height="30" as="geometry" />
        </mxCell>
        <mxCell id="KCAJLVSLBCVtTbZ3tJ5R-2" value="(1,1)" style="text;html=1;strokeColor=none;fillColor=none;align=center;verticalAlign=middle;whiteSpace=wrap;rounded=0;" vertex="1" parent="1">
          <mxGeometry x="1290" y="405" width="60" height="30" as="geometry" />
        </mxCell>
        <mxCell id="KCAJLVSLBCVtTbZ3tJ5R-3" value="(n,m)" style="text;html=1;strokeColor=none;fillColor=none;align=center;verticalAlign=middle;whiteSpace=wrap;rounded=0;" vertex="1" parent="1">
          <mxGeometry x="1290" y="245" width="60" height="30" as="geometry" />
        </mxCell>
        <mxCell id="KCAJLVSLBCVtTbZ3tJ5R-4" value="(1,n)" style="text;html=1;strokeColor=none;fillColor=none;align=center;verticalAlign=middle;whiteSpace=wrap;rounded=0;" vertex="1" parent="1">
          <mxGeometry x="890" y="500" width="60" height="30" as="geometry" />
        </mxCell>
        <mxCell id="KCAJLVSLBCVtTbZ3tJ5R-5" value="(1,1)" style="text;html=1;strokeColor=none;fillColor=none;align=center;verticalAlign=middle;whiteSpace=wrap;rounded=0;" vertex="1" parent="1">
          <mxGeometry x="1130" y="500" width="60" height="30" as="geometry" />
        </mxCell>
      </root>
    </mxGraphModel>
  </diagram>
</mxfile>
